<?xml version="1.0" encoding="UTF-8"?>
<svg xmlns="http://www.w3.org/2000/svg" xmlns:xlink="http://www.w3.org/1999/xlink" width="28.346pt" height="28.346pt" viewBox="0 0 28.346 28.346" version="1.1">
<g id="surface1">
<path style="fill:none;stroke-width:1.4174;stroke-linecap:butt;stroke-linejoin:miter;stroke:rgb(0%,0%,0%);stroke-opacity:1;stroke-miterlimit:10;" d="M 26.222656 15.592094 C 26.222656 22.244438 20.828125 27.638969 14.171875 27.638969 C 7.519531 27.638969 2.125 22.244438 2.125 15.592094 C 2.125 8.935844 7.519531 3.545219 14.171875 3.545219 C 20.828125 3.545219 26.222656 8.935844 26.222656 15.592094 Z M 26.222656 15.592094 " transform="matrix(1,0,0,-1,0,28.346)"/>
<path style="fill:none;stroke-width:1.4174;stroke-linecap:butt;stroke-linejoin:miter;stroke:rgb(0%,0%,0%);stroke-opacity:1;stroke-miterlimit:10;" d="M 14.171875 3.545219 L 14.171875 27.638969 " transform="matrix(1,0,0,-1,0,28.346)"/>
<path style=" stroke:none;fill-rule:nonzero;fill:rgb(0%,0%,0%);fill-opacity:1;" d="M 14.171875 12.753906 L 14.171875 0.707031 C 20.828125 0.707031 26.222656 6.101562 26.222656 12.753906 C 26.222656 19.410156 20.828125 24.800781 14.171875 24.800781 Z M 14.171875 12.753906 "/>
</g>
</svg>
